<?xml version="1.0" standalone="no"?>
<!DOCTYPE svg PUBLIC "-//W3C//DTD SVG 20010904//EN"
 "http://www.w3.org/TR/2001/REC-SVG-20010904/DTD/svg10.dtd">
<svg version="1.0" xmlns="http://www.w3.org/2000/svg"
 width="700.000000pt" height="700.000000pt" viewBox="0 0 700.000000 700.000000"
 preserveAspectRatio="xMidYMid meet">
<metadata>
Created by potrace 1.14, written by Peter Selinger 2001-2017
</metadata>
<g transform="translate(0.000000,700.000000) scale(0.100000,-0.100000)"
fill="#000000" stroke="none">
<path d="M4137 6414 c-1 -1 -33 -4 -72 -8 -70 -6 -109 -11 -155 -22 -14 -3
-32 -7 -40 -9 -218 -44 -509 -191 -689 -349 -314 -275 -514 -663 -548 -1061
-11 -137 -6 -317 12 -398 2 -12 7 -35 9 -52 36 -226 159 -499 314 -695 54 -68
219 -230 287 -281 174 -132 369 -227 573 -278 155 -40 210 -46 397 -46 164 0
259 8 330 27 22 5 50 12 63 14 38 7 172 52 242 81 98 41 235 119 312 178 14
11 41 31 60 45 18 14 76 68 129 120 177 176 301 372 383 608 42 122 62 211 81
367 7 55 8 288 1 320 -2 11 -7 43 -10 70 -4 28 -9 57 -11 65 -2 8 -7 29 -10
46 -10 64 -55 204 -93 291 -99 229 -253 434 -446 597 -207 174 -507 313 -761
350 -22 3 -58 9 -80 12 -37 6 -272 13 -278 8z"/>
<path d="M1615 3493 c-531 -67 -958 -489 -1022 -1010 -10 -82 -7 -283 6 -345
6 -29 13 -62 15 -73 23 -113 105 -294 183 -404 100 -142 276 -292 438 -374 75
-37 240 -91 315 -103 25 -3 54 -8 65 -11 28 -5 263 -5 272 0 5 3 33 8 63 12
57 7 188 45 250 71 139 60 256 140 366 249 103 102 164 184 222 300 35 69 99
235 100 258 0 4 6 40 13 80 13 76 16 247 7 332 -19 165 -89 355 -186 504 -102
155 -272 306 -437 389 -184 92 -306 123 -500 126 -77 2 -153 1 -170 -1z"/>
<path d="M4625 2333 c-64 -4 -225 -35 -231 -45 -3 -4 -12 -8 -20 -8 -24 0
-123 -49 -194 -96 -192 -128 -329 -336 -375 -569 -13 -63 -13 -233 0 -305 76
-430 457 -740 890 -725 96 4 145 12 238 42 263 83 480 299 563 558 35 111 39
141 38 290 -1 143 -19 230 -73 349 -124 273 -415 482 -700 502 -42 3 -80 6
-86 7 -5 1 -28 1 -50 0z"/>
</g>
</svg>
